<?xml version="1.0" encoding="utf-8"?>
<!-- Generator: Adobe Illustrator 19.0.0, SVG Export Plug-In . SVG Version: 6.00 Build 0)  -->
<svg version="1.1" id="Layer_1" xmlns="http://www.w3.org/2000/svg" xmlns:xlink="http://www.w3.org/1999/xlink" x="0px" y="0px"
	 viewBox="-254 384.5 103 24.5" style="enable-background:new -254 384.5 103 24.5;" xml:space="preserve">
<style type="text/css">
	.st0{fill:#FFF3D7;}
</style>
<g>
	<g>
		<g>
			<path class="st0" d="M-229.4,400.1v-6.4h1.3v5.3h2.9v1.1H-229.4z"/>
			<path class="st0" d="M-224.3,400.1v-6.4h4.2v1.1h-3v1.5h2.5v1.1h-2.5v1.6h3v1.1H-224.3z"/>
			<path class="st0" d="M-215.2,400.1l-0.4-1.1h-2.3l-0.4,1.1h-1.3l2.3-6.4h1l2.3,6.4H-215.2z M-216.7,395.6l-0.8,2.3h1.6
				L-216.7,395.6z"/>
			<path class="st0" d="M-209.7,400.1l-1.3-2.6h-0.9v2.6h-1.3v-6.4h2.5c1.3,0,2.1,0.9,2.1,2c0,0.9-0.5,1.5-1.2,1.7l1.4,2.8H-209.7z
				 M-210.6,394.8h-1.2v1.7h1.2c0.5,0,0.9-0.4,0.9-0.8S-210.1,394.8-210.6,394.8z"/>
			<path class="st0" d="M-203.4,400.1l-2.5-3.9v3.9h-1.3v-6.4h1.1l2.5,3.9v-3.9h1.3v6.4H-203.4z"/>
			<path class="st0" d="M-194.1,400.1v-3.7l-1.2,2.4h-0.8l-1.2-2.4v3.7h-1.3v-6.4h1.2l1.7,3.5l1.7-3.5h1.2v6.4H-194.1z"/>
			<path class="st0" d="M-187.5,399.5c-0.4,0.4-1,0.7-1.7,0.7s-1.3-0.2-1.7-0.7c-0.6-0.6-0.6-1.4-0.6-2.6s0-1.9,0.6-2.6
				c0.4-0.4,1-0.7,1.7-0.7s1.3,0.2,1.7,0.7c0.6,0.6,0.7,1.4,0.7,2.6S-186.9,398.9-187.5,399.5z M-188.4,395.1
				c-0.2-0.2-0.5-0.3-0.8-0.3s-0.6,0.1-0.8,0.3c-0.2,0.3-0.3,0.6-0.3,1.8s0.1,1.5,0.3,1.8c0.2,0.2,0.5,0.4,0.8,0.4s0.6-0.1,0.8-0.4
				c0.2-0.3,0.3-0.6,0.3-1.8S-188.2,395.4-188.4,395.1z"/>
			<path class="st0" d="M-182.2,400.1l-1.3-2.6h-0.9v2.6h-1.3v-6.4h2.5c1.3,0,2.1,0.9,2.1,2c0,0.9-0.5,1.5-1.2,1.7l1.4,2.8H-182.2z
				 M-183.2,394.8h-1.2v1.7h1.2c0.5,0,0.9-0.4,0.9-0.8S-182.6,394.8-183.2,394.8z"/>
			<path class="st0" d="M-179.7,400.1v-6.4h4.2v1.1h-3v1.5h2.5v1.1h-2.5v1.6h3v1.1H-179.7z"/>
		</g>
	</g>
</g>
</svg>
