<svg id="Layer_1" data-name="Layer 1" xmlns="http://www.w3.org/2000/svg" width="100" height="34.7" viewBox="0 0 100 34.7"><defs><style>.cls-1 { fill: #fff3cf; }</style></defs><title>logo</title><path class="cls-1" d="M2.1 21.1l.4.5 7.2 8.8c1-.8 1.9-1.4 2.8-2.2a9.9 9.9 0 0 1 .7 1.3l-4.1 3.7-.5-.5-8.2-9.3c-.1-.1-.7-.4-.3-.6z"/><path class="cls-1" d="M19.3 25.6l1.9-1.1-7.9-11.2-3.2 1.9a2.4 2.4 0 0 0-1.2 2.5l2.1 4.2-1.6 1.2a3.2 3.2 0 0 0-1.1 1.7l1 1.3a6.7 6.7 0 0 1 2.5-2.4l2.6 5.1 1.8-1.3-2.4-4.8a8.1 8.1 0 0 0 2.3-1.5zM13 21c-.5-1.2-1.2-2.3-1.8-3.6a1.2 1.2 0 0 1 .3-1.1 2.2 2.2 0 0 1 .7-.4c.8 1.3 1.9 2.5 2.6 3.8A4.1 4.1 0 0 1 13 21zM16.9 11.2c.9-.4 1.8-1.3 2.9-.7a16.5 16.5 0 0 1 4.2 2h.1l-1.6-3.9 1.9-.8.3.6 4.7 12.1-1.5.6c-1.1-2.1-1.5-4.8-4-6a10.3 10.3 0 0 0-3.2-1.5h-.1l4.2 8.7-1.7.8-1-1.9-5.2-9.8c.1 0-.1-.1 0-.2zM34.5 5.7c-2.6-1.3-4.9.6-7.2 1.1l4.6 12.9 3-1a6.1 6.1 0 0 0 3.1-5.6c0-2.9-.8-6-3.5-7.4zm.7 9.9a2.3 2.3 0 0 1-1.5 1.5l-3.1-9.4a3.1 3.1 0 0 1 2.7.1 8 8 0 0 1 1.9 7.8zM61.2 16.8l2-8.8.9-3.6 2.8.7-3.2 11.5 4.7 1.4-1 1.6h-.3a54.5 54.5 0 0 0-6.2-1.8 2.7 2.7 0 0 1 .3-1z"/><path class="cls-1" d="M72.3 6.7c-2.3 0-2.6 2.6-3.4 4.1s-.5.1-.7.2-1 .9-1.4 1.5a1.8 1.8 0 0 1 1.2.1c-.4 1.1-1 2.2-1.5 3.4l1.8.6 1.5-3h.2l1.9.8-1.9 6 2.1.9L75.8 10a18.5 18.5 0 0 0 .6-1.8 32.5 32.5 0 0 0-4.1-1.5zm.2 5.8a2.8 2.8 0 0 1-1.8-.6c.8-1.1.7-3.8 2.8-3.1h.1zM79.6 9.6l2.4 1.2c-.7 1.4-1.5 2.8-2 4.2a5.1 5.1 0 0 0 4.7-2.7 7.1 7.1 0 0 1 1.7.9 6.5 6.5 0 0 1-1.7 1.9 20.2 20.2 0 0 1-2.3 1.5c.3 3.3-.8 6.1-2.2 8.8a18.9 18.9 0 0 1-1.9-1.1c.9-2.2 2.2-4.4 1.8-7.1h-1.2L76 23h-.3l-1.7-.9.2-.5zM84.6 21.9l4.5-7a50.4 50.4 0 0 1 5 3.5l-.9 1.5-2.8-2.1-2.1 3.1a20.5 20.5 0 0 0 1.7 1.4l-.9 1.3-1.8-1.3c-1.1 1.2-1.7 2.6-2.7 3.8l.2.2a17.9 17.9 0 0 1 2.4 1.8l-1 1.3c-1.4-1.1-2.9-2.1-4.4-3v-.3zM40.6 9.6a9.5 9.5 0 1 1 19 0 9.5 9.5 0 1 1-19 0zm9.5 6.9a6.9 6.9 0 1 0-6.8-6.9 6.9 6.9 0 0 0 6.8 7zM88.2 28.6c.3.8.9 1.9 1.9 1.9a2.3 2.3 0 0 0 1.6-.6c2.1-2.2.6-5.8 2.1-8.2a3.2 3.2 0 0 1 2.7-1.3 4.3 4.3 0 0 1 3.4 3.1 13.7 13.7 0 0 1-1.4 1.5 1.1 1.1 0 0 1-.1-.5 2 2 0 0 0-1.3-1.7 1.6 1.6 0 0 0-1.6.9c-.6 1.5-.2 3.5-.7 5.1a5.2 5.2 0 0 1-2.5 3.5 4.3 4.3 0 0 1-3.9-.2 5.9 5.9 0 0 1-1.8-1.8zM92.6 33.8a.5.5 0 1 1-.5.5.5.5 0 0 1 .5-.5zm0 .1a.4.4 0 0 0 0 .8.4.4 0 0 0 0-.8zm-.1.7h-.1V34h.1v.2zm0-.3v.2z"/></svg>